<svg width="21" height="24" viewBox="0 0 21 24" fill="none" xmlns="http://www.w3.org/2000/svg">
<path d="M20.1714 17.2987L17.4834 14.5762C17.3802 14.4708 17.2573 14.3871 17.122 14.33C16.9866 14.2729 16.8414 14.2435 16.6948 14.2435C16.5482 14.2435 16.403 14.2729 16.2676 14.33C16.1323 14.3871 16.0094 14.4708 15.9061 14.5762L11.9297 18.6037C11.8267 18.7089 11.7453 18.8335 11.69 18.9706C11.6347 19.1077 11.6067 19.2544 11.6075 19.4025V22.125C11.6075 22.4233 11.7246 22.7095 11.9329 22.9205C12.1412 23.1315 12.4237 23.25 12.7183 23.25H15.4063C15.5525 23.2508 15.6974 23.2225 15.8327 23.1665C15.9681 23.1105 16.0912 23.028 16.1949 22.9237L20.1714 18.8962C20.2755 18.7917 20.3582 18.6672 20.4146 18.5301C20.471 18.393 20.5 18.246 20.5 18.0975C20.5 17.949 20.471 17.8019 20.4146 17.6648C20.3582 17.5277 20.2755 17.4033 20.1714 17.2987ZM14.9398 21H13.829V19.875L16.6948 16.9725L17.8055 18.0975L14.9398 21ZM8.27527 21H3.83226C3.53767 21 3.25515 20.8815 3.04684 20.6705C2.83853 20.4595 2.72151 20.1734 2.72151 19.875V4.125C2.72151 3.82663 2.83853 3.54048 3.04684 3.3295C3.25515 3.11852 3.53767 3 3.83226 3H9.38603V6.375C9.38603 7.2701 9.7371 8.12854 10.362 8.76148C10.9869 9.39441 11.8345 9.74999 12.7183 9.74999H16.0505V10.875C16.0505 11.1734 16.1676 11.4595 16.3759 11.6705C16.5842 11.8815 16.8667 12 17.1613 12C17.4559 12 17.7384 11.8815 17.9467 11.6705C18.155 11.4595 18.2721 11.1734 18.2721 10.875V8.62499C18.2721 8.62499 18.2721 8.62499 18.2721 8.55749C18.2605 8.45414 18.2381 8.35233 18.2054 8.25374V8.15249C18.152 8.03682 18.0808 7.93049 17.9944 7.83749L11.3298 1.0875C11.238 0.999993 11.133 0.927841 11.0188 0.87375C10.9857 0.86898 10.952 0.86898 10.9189 0.87375L10.5634 0.75H3.83226C2.94849 0.75 2.10092 1.10558 1.476 1.73851C0.851076 2.37145 0.5 3.22989 0.5 4.125V19.875C0.5 20.7701 0.851076 21.6285 1.476 22.2615C2.10092 22.8944 2.94849 23.25 3.83226 23.25H8.27527C8.56986 23.25 8.85239 23.1315 9.06069 22.9205C9.269 22.7095 9.38603 22.4233 9.38603 22.125C9.38603 21.8266 9.269 21.5405 9.06069 21.3295C8.85239 21.1185 8.56986 21 8.27527 21ZM11.6075 4.58625L14.4844 7.49999H12.7183C12.4237 7.49999 12.1412 7.38147 11.9329 7.17049C11.7246 6.95951 11.6075 6.67336 11.6075 6.375V4.58625ZM6.05377 14.25H12.7183C13.0129 14.25 13.2954 14.1315 13.5037 13.9205C13.712 13.7095 13.829 13.4234 13.829 13.125C13.829 12.8266 13.712 12.5405 13.5037 12.3295C13.2954 12.1185 13.0129 12 12.7183 12H6.05377C5.75918 12 5.47665 12.1185 5.26835 12.3295C5.06004 12.5405 4.94301 12.8266 4.94301 13.125C4.94301 13.4234 5.06004 13.7095 5.26835 13.9205C5.47665 14.1315 5.75918 14.25 6.05377 14.25ZM6.05377 9.74999H7.16452C7.45911 9.74999 7.74163 9.63147 7.94994 9.42049C8.15825 9.20951 8.27527 8.92336 8.27527 8.62499C8.27527 8.32662 8.15825 8.04048 7.94994 7.8295C7.74163 7.61852 7.45911 7.49999 7.16452 7.49999H6.05377C5.75918 7.49999 5.47665 7.61852 5.26835 7.8295C5.06004 8.04048 4.94301 8.32662 4.94301 8.62499C4.94301 8.92336 5.06004 9.20951 5.26835 9.42049C5.47665 9.63147 5.75918 9.74999 6.05377 9.74999ZM8.27527 16.5H6.05377C5.75918 16.5 5.47665 16.6185 5.26835 16.8295C5.06004 17.0405 4.94301 17.3266 4.94301 17.625C4.94301 17.9234 5.06004 18.2095 5.26835 18.4205C5.47665 18.6315 5.75918 18.75 6.05377 18.75H8.27527C8.56986 18.75 8.85239 18.6315 9.06069 18.4205C9.269 18.2095 9.38603 17.9234 9.38603 17.625C9.38603 17.3266 9.269 17.0405 9.06069 16.8295C8.85239 16.6185 8.56986 16.5 8.27527 16.5Z" fill="#1585FF"/>
</svg>
