<svg width="21" height="22" viewBox="0 0 21 22" fill="none" xmlns="http://www.w3.org/2000/svg">
<path d="M11.5 15.002H5.50001C5.23479 15.002 4.98044 15.1074 4.7929 15.2949C4.60537 15.4825 4.50001 15.7368 4.50001 16.002C4.50001 16.2672 4.60537 16.5216 4.7929 16.7091C4.98044 16.8967 5.23479 17.002 5.50001 17.002H11.5C11.7652 17.002 12.0196 16.8967 12.2071 16.7091C12.3947 16.5216 12.5 16.2672 12.5 16.002C12.5 15.7368 12.3947 15.4825 12.2071 15.2949C12.0196 15.1074 11.7652 15.002 11.5 15.002ZM7.50001 9.00202H9.50001C9.76522 9.00202 10.0196 8.89666 10.2071 8.70913C10.3947 8.52159 10.5 8.26724 10.5 8.00202C10.5 7.7368 10.3947 7.48245 10.2071 7.29491C10.0196 7.10738 9.76522 7.00202 9.50001 7.00202H7.50001C7.23479 7.00202 6.98044 7.10738 6.7929 7.29491C6.60537 7.48245 6.50001 7.7368 6.50001 8.00202C6.50001 8.26724 6.60537 8.52159 6.7929 8.70913C6.98044 8.89666 7.23479 9.00202 7.50001 9.00202ZM19.5 11.002H16.5V2.00202C16.5007 1.82581 16.4548 1.65255 16.367 1.49977C16.2792 1.34699 16.1526 1.22013 16 1.13202C15.848 1.04425 15.6755 0.998047 15.5 0.998047C15.3245 0.998047 15.152 1.04425 15 1.13202L12 2.85202L9.00001 1.13202C8.84799 1.04425 8.67554 0.998047 8.50001 0.998047C8.32447 0.998047 8.15203 1.04425 8.00001 1.13202L5.00001 2.85202L2.00001 1.13202C1.84799 1.04425 1.67554 0.998047 1.50001 0.998047C1.32447 0.998047 1.15203 1.04425 1.00001 1.13202C0.847404 1.22013 0.720789 1.34699 0.632986 1.49977C0.545183 1.65255 0.499308 1.82581 0.500008 2.00202V18.002C0.500008 18.7977 0.816078 19.5607 1.37869 20.1233C1.9413 20.686 2.70436 21.002 3.50001 21.002H17.5C18.2957 21.002 19.0587 20.686 19.6213 20.1233C20.1839 19.5607 20.5 18.7977 20.5 18.002V12.002C20.5 11.7368 20.3947 11.4825 20.2071 11.2949C20.0196 11.1074 19.7652 11.002 19.5 11.002ZM3.50001 19.002C3.23479 19.002 2.98044 18.8967 2.7929 18.7091C2.60536 18.5216 2.50001 18.2672 2.50001 18.002V3.73202L4.50001 4.87202C4.65435 4.95263 4.82589 4.99473 5.00001 4.99473C5.17413 4.99473 5.34567 4.95263 5.50001 4.87202L8.50001 3.15202L11.5 4.87202C11.6543 4.95263 11.8259 4.99473 12 4.99473C12.1741 4.99473 12.3457 4.95263 12.5 4.87202L14.5 3.73202V18.002C14.5027 18.3432 14.5636 18.6813 14.68 19.002H3.50001ZM18.5 18.002C18.5 18.2672 18.3947 18.5216 18.2071 18.7091C18.0196 18.8967 17.7652 19.002 17.5 19.002C17.2348 19.002 16.9804 18.8967 16.7929 18.7091C16.6054 18.5216 16.5 18.2672 16.5 18.002V13.002H18.5V18.002ZM11.5 11.002H5.50001C5.23479 11.002 4.98044 11.1074 4.7929 11.2949C4.60537 11.4825 4.50001 11.7368 4.50001 12.002C4.50001 12.2672 4.60537 12.5216 4.7929 12.7091C4.98044 12.8967 5.23479 13.002 5.50001 13.002H11.5C11.7652 13.002 12.0196 12.8967 12.2071 12.7091C12.3947 12.5216 12.5 12.2672 12.5 12.002C12.5 11.7368 12.3947 11.4825 12.2071 11.2949C12.0196 11.1074 11.7652 11.002 11.5 11.002Z" fill="#10B981"/>
</svg>
