<svg width="21" height="24" viewBox="0 0 21 24" fill="none" xmlns="http://www.w3.org/2000/svg">
<path d="M19.3889 7.56894L12.7222 1.72454C12.1111 1.17793 11.32 0.875732 10.5 0.875732C9.68011 0.875732 8.88896 1.17793 8.27783 1.72454L1.61121 7.56894C1.25829 7.88458 0.976658 8.27178 0.785072 8.70476C0.593487 9.13775 0.496342 9.60658 0.500105 10.08V19.7911C0.500105 20.6751 0.851292 21.523 1.47641 22.1481C2.10153 22.7732 2.94937 23.1244 3.83342 23.1244H17.1667C18.0507 23.1244 18.8985 22.7732 19.5237 22.1481C20.1488 21.523 20.5 20.6751 20.5 19.7911V10.0689C20.5021 9.59733 20.4042 9.13064 20.2127 8.69969C20.0212 8.26874 19.7404 7.88334 19.3889 7.56894ZM12.7222 20.9022H8.27783V15.3467C8.27783 15.052 8.39489 14.7694 8.60326 14.561C8.81164 14.3526 9.09425 14.2356 9.38893 14.2356H11.6111C11.9058 14.2356 12.1884 14.3526 12.3968 14.561C12.6052 14.7694 12.7222 15.052 12.7222 15.3467V20.9022ZM18.2778 19.7911C18.2778 20.0858 18.1607 20.3684 17.9523 20.5767C17.7439 20.7851 17.4613 20.9022 17.1667 20.9022H14.9444V15.3467C14.9444 14.4626 14.5933 13.6148 13.9681 12.9897C13.343 12.3645 12.4952 12.0134 11.6111 12.0134H9.38893C8.50488 12.0134 7.65704 12.3645 7.03192 12.9897C6.40681 13.6148 6.05562 14.4626 6.05562 15.3467V20.9022H3.83342C3.53873 20.9022 3.25612 20.7851 3.04775 20.5767C2.83937 20.3684 2.72231 20.0858 2.72231 19.7911V10.0689C2.72251 9.91116 2.7563 9.75526 2.82144 9.61157C2.88658 9.46789 2.98157 9.33972 3.10009 9.2356L9.76671 3.40231C9.96947 3.22417 10.2301 3.12594 10.5 3.12594C10.7699 3.12594 11.0306 3.22417 11.2334 3.40231L17.9 9.2356C18.0185 9.33972 18.1135 9.46789 18.1786 9.61157C18.2438 9.75526 18.2776 9.91116 18.2778 10.0689V19.7911Z" fill="#EFC200"/>
</svg>
