<svg width="21" height="16" viewBox="0 0 21 16" fill="none" xmlns="http://www.w3.org/2000/svg">
<path d="M19.5 6.42192H17C16.8677 6.42247 16.7368 6.44927 16.6149 6.50076C16.4931 6.55226 16.3826 6.62743 16.29 6.72192L15.05 8.01192L12.25 4.82192C12.1565 4.72201 12.0434 4.64236 11.9179 4.58791C11.7923 4.53346 11.6569 4.50537 11.52 4.50537C11.3831 4.50537 11.2477 4.53346 11.1222 4.58791C10.9966 4.64236 10.8836 4.72201 10.79 4.82192L9.09001 6.52192H7.50001C7.2348 6.52192 6.98044 6.62728 6.7929 6.81481C6.60537 7.00235 6.50001 7.2567 6.50001 7.52192C6.50001 7.78714 6.60537 8.04149 6.7929 8.22902C6.98044 8.41656 7.2348 8.52192 7.50001 8.52192H9.50001C9.63162 8.52268 9.76208 8.49745 9.88392 8.44769C10.0058 8.39792 10.1166 8.3246 10.21 8.23192L11.5 6.89192L14.3 10.0819C14.3903 10.1849 14.5009 10.2682 14.6247 10.3267C14.7486 10.3852 14.8831 10.4176 15.02 10.4219C15.1516 10.4227 15.2821 10.3975 15.4039 10.3477C15.5258 10.2979 15.6366 10.2246 15.73 10.1319L17.43 8.42192H19.5C19.7652 8.42192 20.0196 8.31656 20.2071 8.12902C20.3947 7.94149 20.5 7.68713 20.5 7.42192C20.5 7.1567 20.3947 6.90235 20.2071 6.71481C20.0196 6.52728 19.7652 6.42192 19.5 6.42192ZM12.11 11.7219L10.21 13.6219C10.117 13.7156 10.0064 13.79 9.88459 13.8408C9.76273 13.8916 9.63202 13.9177 9.50001 13.9177C9.368 13.9177 9.23729 13.8916 9.11543 13.8408C8.99358 13.79 8.88297 13.7156 8.79001 13.6219L3.58001 8.41192C3.23713 8.06924 2.96513 7.66236 2.77955 7.21453C2.59398 6.76669 2.49846 6.28668 2.49846 5.80192C2.49846 5.31716 2.59398 4.83714 2.77955 4.38931C2.96513 3.94147 3.23713 3.5346 3.58001 3.19192C4.27167 2.50249 5.20843 2.11536 6.18501 2.11536C7.16159 2.11536 8.09835 2.50249 8.79001 3.19192C8.88297 3.28565 8.99358 3.36004 9.11543 3.41081C9.23729 3.46158 9.368 3.48772 9.50001 3.48772C9.63202 3.48772 9.76273 3.46158 9.88459 3.41081C10.0064 3.36004 10.117 3.28565 10.21 3.19192C10.9127 2.52364 11.8453 2.15096 12.815 2.15096C13.7847 2.15096 14.7173 2.52364 15.42 3.19192C15.6428 3.41766 15.8376 3.66948 16 3.94192C16.1456 4.14213 16.3603 4.28122 16.6026 4.33227C16.8448 4.38331 17.0974 4.34269 17.3114 4.21826C17.5254 4.09383 17.6856 3.89444 17.7611 3.65867C17.8366 3.4229 17.822 3.16751 17.72 2.94192C17.4728 2.53147 17.1774 2.1521 16.84 1.81192C15.891 0.851769 14.6311 0.261022 13.286 0.145574C11.9409 0.0301272 10.5988 0.397529 9.50001 1.18192C8.65087 0.570212 7.64924 0.204994 6.60565 0.126569C5.56206 0.0481439 4.5171 0.25956 3.58607 0.737487C2.65504 1.21541 1.87416 1.94127 1.32958 2.83495C0.78501 3.72863 0.497925 4.75539 0.500011 5.80192C0.499712 6.54601 0.647178 7.28275 0.933854 7.9694C1.22053 8.65605 1.64071 9.27894 2.17001 9.80192L7.38001 15.0119C7.94251 15.5737 8.70501 15.8893 9.50001 15.8893C10.295 15.8893 11.0575 15.5737 11.62 15.0119L13.5 13.1319C13.6863 12.9446 13.7908 12.6911 13.7908 12.4269C13.7908 12.1627 13.6863 11.9093 13.5 11.7219C13.3135 11.5417 13.0644 11.4409 12.805 11.4409C12.5457 11.4409 12.2965 11.5417 12.11 11.7219Z" fill="#3205B2"/>
</svg>
