<svg width="21" height="20" viewBox="0 0 21 20" fill="none" xmlns="http://www.w3.org/2000/svg">
<path d="M17.5 -0.000244141H3.5C2.70435 -0.000244141 1.94129 0.315826 1.37868 0.878436C0.816071 1.44104 0.5 2.20411 0.5 2.99976V12.9998C0.5 13.7954 0.816071 14.5585 1.37868 15.1211C1.94129 15.6837 2.70435 15.9998 3.5 15.9998H15.09L18.79 19.7098C18.8834 19.8024 18.9943 19.8758 19.1161 19.9255C19.2379 19.9753 19.3684 20.0005 19.5 19.9998C19.6312 20.0031 19.7613 19.9757 19.88 19.9198C20.0626 19.8447 20.2189 19.7173 20.3293 19.5536C20.4396 19.3899 20.499 19.1972 20.5 18.9998V2.99976C20.5 2.20411 20.1839 1.44104 19.6213 0.878436C19.0587 0.315826 18.2956 -0.000244141 17.5 -0.000244141ZM4.27 13.9998H3.5C3.23478 13.9998 2.98043 13.8944 2.79289 13.7069C2.60536 13.5193 2.5 13.265 2.5 12.9998V12.5798L5.8 9.28976C5.98736 9.10351 6.24081 8.99896 6.505 8.99896C6.76919 8.99896 7.02264 9.10351 7.21 9.28976L8.08 10.1598L4.27 13.9998ZM18.5 16.5898L16.21 14.2898C16.1166 14.1971 16.0057 14.1237 15.8839 14.074C15.7621 14.0242 15.6316 13.999 15.5 13.9998H7.09L13.8 7.28976C13.9869 7.10653 14.2382 7.0039 14.5 7.0039C14.7618 7.0039 15.0131 7.10653 15.2 7.28976L18.5 10.5798V16.5898ZM18.5 7.75976L16.62 5.88976C16.0575 5.32795 15.295 5.0124 14.5 5.0124C13.705 5.0124 12.9425 5.32795 12.38 5.88976L9.5 8.75976L8.62 7.88976C8.05006 7.34219 7.29036 7.03638 6.5 7.03638C5.70964 7.03638 4.94994 7.34219 4.38 7.88976L2.5 9.75976V2.99976C2.5 2.73454 2.60536 2.48019 2.79289 2.29265C2.98043 2.10511 3.23478 1.99976 3.5 1.99976H17.5C17.7652 1.99976 18.0196 2.10511 18.2071 2.29265C18.3946 2.48019 18.5 2.73454 18.5 2.99976V7.75976Z" fill="#FF009E"/>
</svg>
