<svg width="157" height="44" viewBox="0 0 157 44" fill="none" xmlns="http://www.w3.org/2000/svg">
<g clip-path="url(#clip0_72_11450)">
<path d="M63.5401 10.3164V33.8704H57.7353L57.4978 29.8186C55.9283 32.9284 52.9778 34.3407 49.1719 34.3407C44.3673 34.3407 40.7988 31.9379 40.7988 25.9085V10.3164H47.3161V24.2611C47.3161 28.0778 48.8856 29.255 51.4555 29.255C54.5474 29.255 57.0229 27.3241 57.0229 22.9421V10.3164H63.5418H63.5401Z" fill="#3E06DE"/>
<path d="M116.124 29.7719L115.649 33.682C114.792 34.1056 113.746 34.3423 112.557 34.3423C109.702 34.3423 107.752 33.3535 107.085 30.8091C105.657 33.1168 102.661 34.3423 98.6635 34.3423C94.1435 34.3423 91.2891 32.2697 91.2891 28.3129C91.2891 24.6379 94.1907 22.0467 100.566 20.8695L106.275 19.7857V18.6552C106.275 16.1591 104.8 14.5567 102.232 14.5567C99.4718 14.5567 97.4746 15.5938 96.7605 18.5618L91.5737 16.3942C92.5723 12.389 96.1408 9.84619 101.946 9.84619C108.559 9.84619 112.745 12.6725 112.745 18.5135V28.1712C112.745 29.3967 113.269 29.962 114.505 29.962C115.076 29.962 115.647 29.9153 116.124 29.7736V29.7719ZM106.275 26.192V23.7425L101.185 24.873C99.0912 25.3432 97.9966 26.0986 97.9966 27.6526C97.9966 29.2067 98.9952 29.9603 100.708 29.9603C103.182 29.9603 106.274 28.6881 106.274 26.192H106.275Z" fill="#3E06DE"/>
<path d="M89.4159 0V33.8704H83.611L83.3247 29.4901C81.9455 32.363 79.1382 34.3423 75.4737 34.3423C69.1451 34.3423 65.292 29.8202 65.292 22.1417C65.292 14.4166 69.1451 9.84614 75.4737 9.84614C78.9951 9.84614 81.5632 11.5419 82.8953 14.1798V0H89.4125H89.4159ZM82.8987 22.3302V21.8599C82.8987 17.3846 80.8054 14.7934 77.3801 14.7934C73.9547 14.7934 71.8126 17.2895 71.8126 22.095C71.8126 26.9006 73.953 29.3967 77.3801 29.3967C80.7582 29.3967 82.8987 26.9006 82.8987 22.3302Z" fill="#3E06DE"/>
<path d="M38.5364 35.6143C38.5364 41.7854 34.8736 43.9998 30.0673 43.9998C27.7366 43.9998 25.7848 43.4345 24.3584 42.4924L25.4059 37.8753C26.1671 38.5339 27.356 39.0058 28.7369 39.0058C30.783 39.0058 32.0191 37.9687 32.0191 35.0023V10.3161H38.5364V35.6143ZM38.7839 3.48301C38.7839 5.38888 37.5546 6.44436 35.3013 6.44436C33.0481 6.44436 31.8187 5.38888 31.8187 3.48301C31.8187 1.57548 33.0481 0.47998 35.3013 0.47998C37.5546 0.47998 38.7839 1.57548 38.7839 3.48301Z" fill="#3E06DE"/>
<path d="M21.3621 26.2871H9.2774L6.70755 33.8722H0L11.4667 2.77979H19.3177L30.7843 33.8706H23.9808L21.3638 26.2855L21.3621 26.2871ZM19.7437 21.4816L16.7933 12.7193L15.3652 8.00883H15.2709L13.9388 12.6259L10.8941 21.4816H19.7437Z" fill="#3E06DE"/>
<path d="M148.346 0.00146484H130.974C126.194 0.00146484 122.319 3.83789 122.319 8.57036V25.7715C122.319 30.504 126.194 34.3404 130.974 34.3404H148.346C153.126 34.3404 157.001 30.504 157.001 25.7715V8.57036C157.001 3.83789 153.126 0.00146484 148.346 0.00146484Z" fill="#1585FF"/>
<path d="M152.259 1.49069C152.057 1.2806 151.997 1.04216 152.03 0.820389C151.534 0.588617 151.013 0.400198 150.471 0.265137C149.38 0.443551 148.304 0.695332 147.256 1.05049C147.187 1.07384 147.116 1.09885 147.047 1.12386C144.68 1.96424 142.472 3.38489 141.034 5.42415C140.028 6.8498 139.408 8.55057 138.169 9.78446C136.431 11.5152 133.822 11.9971 131.377 12.3139C128.868 12.6391 126.069 12.9209 124.082 14.645C123.326 15.302 122.74 16.1357 122.315 17.0544V23.8425C122.427 23.9692 122.548 24.0876 122.686 24.1927C123.41 24.7396 124.404 24.823 125.3 24.6562C126.195 24.4911 127.032 24.106 127.886 23.7925C130.096 22.9805 132.445 22.6353 134.729 22.0617C137.012 21.4881 139.306 20.6411 141.012 19.032C143.861 16.3408 144.509 12.1205 146.537 8.77734C148.073 6.24452 150.437 4.24695 153.157 3.01972C152.906 2.48781 152.679 1.93089 152.258 1.49403L152.259 1.49069Z" fill="#FF009E"/>
<path d="M154.299 3.3182C154.233 2.92969 153.681 2.66957 153.371 2.44447C152.921 2.11766 152.36 1.85087 152.074 1.35898C151.985 1.20558 151.949 1.05384 151.956 0.912109C151.437 1.1122 150.92 1.3273 150.4 1.5574C148.991 2.17768 147.647 2.75628 146.387 3.66169C143.954 5.41082 141.998 7.82192 140.858 10.5832C140.07 12.4907 139.541 14.705 137.822 15.8672C136.559 16.721 134.944 16.791 133.442 17.0661C129.159 17.8498 125.88 19.7907 123.002 23.0272C122.753 23.3073 122.529 23.5774 122.32 23.8409V25.7734C122.32 28.9565 124.075 31.7344 126.679 33.2101C126.682 33.2051 126.685 33.2001 126.689 33.1951C126.734 33.1051 126.795 33.025 126.872 32.9583C126.877 32.955 126.882 32.95 126.887 32.9467C126.908 32.9317 126.928 32.9167 126.948 32.9016C126.955 32.8966 126.962 32.8916 126.97 32.8866C126.995 32.8716 127.022 32.8566 127.051 32.8433C127.064 32.8366 127.079 32.8316 127.095 32.8266C127.11 32.8216 127.125 32.8149 127.14 32.8099C127.159 32.8033 127.179 32.7999 127.199 32.7949C127.211 32.7916 127.223 32.7899 127.234 32.7883C127.258 32.7833 127.282 32.7799 127.305 32.7783C127.308 32.7783 127.312 32.7783 127.315 32.7783C127.346 32.7749 127.374 32.7716 127.406 32.7716C127.43 32.7716 127.452 32.7733 127.473 32.7749C127.543 32.7566 127.618 32.7466 127.701 32.7466C128.3 32.7466 128.9 32.7566 129.499 32.7549C131.002 31.0558 132.846 29.6552 134.909 28.6914C137.032 27.6993 139.378 27.1474 141.338 25.8668C143.442 24.4945 144.976 22.3185 145.644 19.9141C146.219 17.8498 146.178 15.6538 146.747 13.5879C147.881 9.471 151.219 6.43795 154.704 3.82343C154.502 3.72005 154.341 3.54497 154.304 3.31987L154.299 3.3182Z" fill="#FFCF02"/>
<path d="M152.02 0.811929C147.99 3.27138 145.58 8.06356 145.393 12.804C145.344 14.0313 145.407 15.3335 144.792 16.4007C143.832 18.0631 141.668 18.4983 139.804 19.0069C135.313 20.2324 131.077 23.0287 129.05 27.1822C128.107 29.1148 127.633 31.3141 126.665 33.2016C127.933 33.9236 129.403 34.3388 130.973 34.3388H137.557C137.696 34.0804 137.839 33.8236 137.99 33.5718C138.598 32.5647 139.326 31.6276 140.2 30.8322C143.046 28.2444 147.205 27.359 149.864 24.5827C151.397 22.982 152.31 20.811 152.377 18.605C152.47 15.5603 151.021 12.5706 151.419 9.54923C151.739 7.12146 153.366 4.96882 155.536 3.79829C154.664 2.51103 153.448 1.47223 152.02 0.808594V0.811929Z" fill="#3E06DE"/>
</g>
<defs>
<clipPath id="clip0_72_11450">
<rect width="157" height="44" fill="white"/>
</clipPath>
</defs>
</svg>
